<?xml version="1.0" encoding="UTF-8" standalone="no"?>
<!-- Created with Inkscape (http://www.inkscape.org/) -->

<svg
   width="3800"
   height="1000"
   viewBox="0 0 1005.4167 264.58333"
   version="1.1"
   id="svg1"
   inkscape:version="1.3.2 (091e20e, 2023-11-25, custom)"
   sodipodi:docname="points of plates.svg"
   xml:space="preserve"
   inkscape:export-filename="points of plates.png"
   inkscape:export-xdpi="96"
   inkscape:export-ydpi="96"
   xmlns:inkscape="http://www.inkscape.org/namespaces/inkscape"
   xmlns:sodipodi="http://sodipodi.sourceforge.net/DTD/sodipodi-0.dtd"
   xmlns="http://www.w3.org/2000/svg"
   xmlns:svg="http://www.w3.org/2000/svg"><sodipodi:namedview
     id="namedview1"
     pagecolor="#505050"
     bordercolor="#ffffff"
     borderopacity="1"
     inkscape:showpageshadow="0"
     inkscape:pageopacity="0"
     inkscape:pagecheckerboard="1"
     inkscape:deskcolor="#505050"
     inkscape:document-units="mm"
     inkscape:zoom="0.17171191"
     inkscape:cx="2687.6412"
     inkscape:cy="311.56837"
     inkscape:window-width="1920"
     inkscape:window-height="1009"
     inkscape:window-x="-8"
     inkscape:window-y="-8"
     inkscape:window-maximized="1"
     inkscape:current-layer="layer1"
     showgrid="false" /><defs
     id="defs1" /><g
     inkscape:label="Layer 1"
     inkscape:groupmode="layer"
     id="layer1"><g
       transform="matrix(0.03527778,0,0,-0.03527778,0,99.836111)"
       fill="#000000"
       stroke="none"
       id="g1" /><path
       id="path1"
       style="fill:#ebd712;fill-opacity:1;stroke:none;stroke-width:2.34343px;stroke-linecap:butt;stroke-linejoin:miter;stroke-opacity:1"
       d="m 62.174533,26.4636 c -4.6829,0.0434 -8.4756,0.92573 -11.14694,2.79473 -17.88921,12.51666 -25.91506,63.059 -24.38587,111.31627 12.13483,-9.34301 95.712837,-82.236 97.749077,-83.01841 2.17567,-0.83598 -21.66113,65.73297 -52.652457,92.79798 -9.57284,8.36006 -23.49857,2.09045 -23.49857,2.09045 l -19.78619,14.25665 c 3.74634,34.20027 12.72601,63.07063 26.87964,70.0493 25.90431,12.77239 185.224967,-66.79708 182.763557,-101.08364 -0.75005,-10.44653 -15.79397,-26.25967 -37.11595,-42.63074 l -72.45719,64.08292 c 0,0 0.53949,2.66608 0.15453,13.44908 -0.28104,7.86247 -7.85,14.62898 -7.85,14.62898 l -29.228537,28.37407 c 0,0 -5.91696,3.06315 -8.83996,-0.0434 -2.92319,-3.10351 -0.3922,-7.20012 -0.3922,-7.20012 l 26.155797,-24.08987 -3.53976,-3.54399 -26.767487,24.38156 c 0,0 -6.15517,2.9555 -9.07817,-0.14845 -2.92301,-3.10351 0.30815,-8.42031 0.30815,-8.42031 l 25.87557,-24.64623 -4.80056,-4.61607 -27.68752,24.67757 c 0,0 -3.54004,2.80801 -6.46304,0 -5.69212,-5.46811 -0.46268,-11.67261 -0.46268,-11.67261 0,0 33.07872,-29.11369 39.84774,-33.99063 6.769117,-4.87719 23.227817,-0.44446 23.227817,-0.44446 L 180.91937,78.67719 C 139.98885,51.26886 87.781813,26.23946 62.174713,26.45978 Z" /><text
       xml:space="preserve"
       style="font-style:normal;font-variant:normal;font-weight:normal;font-stretch:normal;font-size:108.091px;line-height:1.25;font-family:Calibri;-inkscape-font-specification:Calibri;letter-spacing:0.0449792px;word-spacing:0px;fill:#ebd712;fill-opacity:1;stroke:none;stroke-width:2.70228"
       x="265.19937"
       y="168.62988"
       id="text1"><tspan
         sodipodi:role="line"
         id="tspan1"
         style="font-style:normal;font-variant:normal;font-weight:bold;font-stretch:normal;font-family:'Nirmala UI';-inkscape-font-specification:'Nirmala UI Bold';letter-spacing:0.0449792px;fill:#ebd712;fill-opacity:1;stroke-width:2.70228"
         x="265.19937"
         y="168.62988"
         dx="2.25">Points4Plates</tspan></text></g></svg>
